<svg style="transition:.3s" viewBox="0 0 1440 490" xmlns="http://www.w3.org/2000/svg"><defs><linearGradient id="a" x1="0" x2="0" y1="1" y2="0"><stop stop-color="rgba(0.365, 116.472, 116.472, 1)" offset="0%"/><stop stop-color="rgba(0, 85, 85, 1)" offset="100%"/></linearGradient></defs><path fill="url(#a)" d="M0 441l48-32.7C96 376 192 310 288 245c96-65 192-131 288-147s192 16 288 73.5 192 138.5 288 114.3c96-24.8 192-154.8 288-147 96 8.2 192 155.2 288 204.2s192 0 288-49 192-98 288-73.5 192 122.5 288 163.3c96 41.2 192 24.2 288-24.5 96-49.3 192-130.3 288-171.5 96-40.8 192-40.8 288-57.1 96-16.7 192-48.7 288-8.2s192 155.5 288 179.7c96 24.8 192-41.2 288-73.5 96-32.7 192-32.7 288-57.2s192-73.5 288-98 192-24.5 288-16.3c96 7.8 192 24.8 288 49 96 24.8 192 56.8 288 89.8s192 65 288 106.2c96 40.8 192 89.8 288 57.1 96-32.3 192-147.3 288-187.8s192-8.5 240 8.2l48 16.3v294H0z"/></svg>