<?xml version="1.0" standalone="no"?>
<svg xmlns:xlink="http://www.w3.org/1999/xlink" id="wave" style="transform:rotate(180deg); transition: 0.3s" viewBox="0 0 1440 280" version="1.1" xmlns="http://www.w3.org/2000/svg"><defs><linearGradient id="sw-gradient-0" x1="0" x2="0" y1="1" y2="0"><stop stop-color="rgba(255, 255, 255, 1)" offset="0%"/><stop stop-color="rgba(6, 154, 142, 1)" offset="100%"/></linearGradient></defs><path style="transform:translate(0, 0px); opacity:1" fill="url(#sw-gradient-0)" d="M0,84L40,74.7C80,65,160,47,240,60.7C320,75,400,121,480,140C560,159,640,149,720,121.3C800,93,880,47,960,42C1040,37,1120,75,1200,102.7C1280,131,1360,149,1440,144.7C1520,140,1600,112,1680,116.7C1760,121,1840,159,1920,163.3C2000,168,2080,140,2160,107.3C2240,75,2320,37,2400,32.7C2480,28,2560,56,2640,88.7C2720,121,2800,159,2880,163.3C2960,168,3040,140,3120,149.3C3200,159,3280,205,3360,214.7C3440,224,3520,196,3600,196C3680,196,3760,224,3840,233.3C3920,243,4000,233,4080,214.7C4160,196,4240,168,4320,135.3C4400,103,4480,65,4560,46.7C4640,28,4720,28,4800,46.7C4880,65,4960,103,5040,130.7C5120,159,5200,177,5280,172.7C5360,168,5440,140,5520,135.3C5600,131,5680,149,5720,158.7L5760,168L5760,280L5720,280C5680,280,5600,280,5520,280C5440,280,5360,280,5280,280C5200,280,5120,280,5040,280C4960,280,4880,280,4800,280C4720,280,4640,280,4560,280C4480,280,4400,280,4320,280C4240,280,4160,280,4080,280C4000,280,3920,280,3840,280C3760,280,3680,280,3600,280C3520,280,3440,280,3360,280C3280,280,3200,280,3120,280C3040,280,2960,280,2880,280C2800,280,2720,280,2640,280C2560,280,2480,280,2400,280C2320,280,2240,280,2160,280C2080,280,2000,280,1920,280C1840,280,1760,280,1680,280C1600,280,1520,280,1440,280C1360,280,1280,280,1200,280C1120,280,1040,280,960,280C880,280,800,280,720,280C640,280,560,280,480,280C400,280,320,280,240,280C160,280,80,280,40,280L0,280Z"/></svg>