<?xml version="1.0" standalone="no"?>
<svg xmlns:xlink="http://www.w3.org/1999/xlink" id="wave" style="transform:rotate(180deg); transition: 0.3s" viewBox="0 0 1440 390" version="1.1" xmlns="http://www.w3.org/2000/svg"><defs><linearGradient id="sw-gradient-0" x1="0" x2="0" y1="1" y2="0"><stop stop-color="rgba(255, 255, 255, 1)" offset="0%"/><stop stop-color="rgba(6, 154, 142, 1)" offset="100%"/></linearGradient></defs><path style="transform:translate(0, 0px); opacity:1" fill="url(#sw-gradient-0)" d="M0,117L40,104C80,91,160,65,240,84.5C320,104,400,169,480,195C560,221,640,208,720,169C800,130,880,65,960,58.5C1040,52,1120,104,1200,143C1280,182,1360,208,1440,201.5C1520,195,1600,156,1680,162.5C1760,169,1840,221,1920,227.5C2000,234,2080,195,2160,149.5C2240,104,2320,52,2400,45.5C2480,39,2560,78,2640,123.5C2720,169,2800,221,2880,227.5C2960,234,3040,195,3120,208C3200,221,3280,286,3360,299C3440,312,3520,273,3600,273C3680,273,3760,312,3840,325C3920,338,4000,325,4080,299C4160,273,4240,234,4320,188.5C4400,143,4480,91,4560,65C4640,39,4720,39,4800,65C4880,91,4960,143,5040,182C5120,221,5200,247,5280,240.5C5360,234,5440,195,5520,188.5C5600,182,5680,208,5720,221L5760,234L5760,390L5720,390C5680,390,5600,390,5520,390C5440,390,5360,390,5280,390C5200,390,5120,390,5040,390C4960,390,4880,390,4800,390C4720,390,4640,390,4560,390C4480,390,4400,390,4320,390C4240,390,4160,390,4080,390C4000,390,3920,390,3840,390C3760,390,3680,390,3600,390C3520,390,3440,390,3360,390C3280,390,3200,390,3120,390C3040,390,2960,390,2880,390C2800,390,2720,390,2640,390C2560,390,2480,390,2400,390C2320,390,2240,390,2160,390C2080,390,2000,390,1920,390C1840,390,1760,390,1680,390C1600,390,1520,390,1440,390C1360,390,1280,390,1200,390C1120,390,1040,390,960,390C880,390,800,390,720,390C640,390,560,390,480,390C400,390,320,390,240,390C160,390,80,390,40,390L0,390Z"/></svg>