<?xml version="1.0" standalone="no"?>
<svg xmlns:xlink="http://www.w3.org/1999/xlink" id="wave" style="transform:rotate(0deg); transition: 0.3s" viewBox="0 0 1440 280" version="1.1" xmlns="http://www.w3.org/2000/svg"><defs><linearGradient id="sw-gradient-0" x1="0" x2="0" y1="1" y2="0"><stop stop-color="rgba(155.603, 214.374, 209.608, 1)" offset="0%"/><stop stop-color="rgba(6, 154, 142, 1)" offset="100%"/></linearGradient></defs><path style="transform:translate(0, 0px); opacity:1" fill="url(#sw-gradient-0)" d="M0,0L48,14C96,28,192,56,288,88.7C384,121,480,159,576,177.3C672,196,768,196,864,172.7C960,149,1056,103,1152,70C1248,37,1344,19,1440,18.7C1536,19,1632,37,1728,65.3C1824,93,1920,131,2016,149.3C2112,168,2208,168,2304,182C2400,196,2496,224,2592,196C2688,168,2784,84,2880,70C2976,56,3072,112,3168,116.7C3264,121,3360,75,3456,65.3C3552,56,3648,84,3744,88.7C3840,93,3936,75,4032,74.7C4128,75,4224,93,4320,116.7C4416,140,4512,168,4608,172.7C4704,177,4800,159,4896,154C4992,149,5088,159,5184,163.3C5280,168,5376,168,5472,144.7C5568,121,5664,75,5760,65.3C5856,56,5952,84,6048,79.3C6144,75,6240,37,6336,23.3C6432,9,6528,19,6624,56C6720,93,6816,159,6864,191.3L6912,224L6912,280L6864,280C6816,280,6720,280,6624,280C6528,280,6432,280,6336,280C6240,280,6144,280,6048,280C5952,280,5856,280,5760,280C5664,280,5568,280,5472,280C5376,280,5280,280,5184,280C5088,280,4992,280,4896,280C4800,280,4704,280,4608,280C4512,280,4416,280,4320,280C4224,280,4128,280,4032,280C3936,280,3840,280,3744,280C3648,280,3552,280,3456,280C3360,280,3264,280,3168,280C3072,280,2976,280,2880,280C2784,280,2688,280,2592,280C2496,280,2400,280,2304,280C2208,280,2112,280,2016,280C1920,280,1824,280,1728,280C1632,280,1536,280,1440,280C1344,280,1248,280,1152,280C1056,280,960,280,864,280C768,280,672,280,576,280C480,280,384,280,288,280C192,280,96,280,48,280L0,280Z"/></svg>