<?xml version="1.0" standalone="no"?>
<svg xmlns:xlink="http://www.w3.org/1999/xlink" id="wave" style="transform:rotate(0deg); transition: 0.3s" viewBox="0 0 1440 280" version="1.1" xmlns="http://www.w3.org/2000/svg"><defs><linearGradient id="sw-gradient-0" x1="0" x2="0" y1="1" y2="0"><stop stop-color="rgba(155.603, 214.374, 209.608, 1)" offset="0%"/><stop stop-color="rgba(6, 154, 142, 1)" offset="100%"/></linearGradient></defs><path style="transform:translate(0, 0px); opacity:1" fill="url(#sw-gradient-0)" d="M0,0L48,32.7C96,65,192,131,288,135.3C384,140,480,84,576,51.3C672,19,768,9,864,32.7C960,56,1056,112,1152,121.3C1248,131,1344,93,1440,65.3C1536,37,1632,19,1728,37.3C1824,56,1920,112,2016,149.3C2112,187,2208,205,2304,205.3C2400,205,2496,187,2592,177.3C2688,168,2784,168,2880,168C2976,168,3072,168,3168,144.7C3264,121,3360,75,3456,56C3552,37,3648,47,3744,74.7C3840,103,3936,149,4032,144.7C4128,140,4224,84,4320,84C4416,84,4512,140,4608,135.3C4704,131,4800,65,4896,32.7C4992,0,5088,0,5184,37.3C5280,75,5376,149,5472,177.3C5568,205,5664,187,5760,191.3C5856,196,5952,224,6048,210C6144,196,6240,140,6336,126C6432,112,6528,140,6624,126C6720,112,6816,56,6864,28L6912,0L6912,280L6864,280C6816,280,6720,280,6624,280C6528,280,6432,280,6336,280C6240,280,6144,280,6048,280C5952,280,5856,280,5760,280C5664,280,5568,280,5472,280C5376,280,5280,280,5184,280C5088,280,4992,280,4896,280C4800,280,4704,280,4608,280C4512,280,4416,280,4320,280C4224,280,4128,280,4032,280C3936,280,3840,280,3744,280C3648,280,3552,280,3456,280C3360,280,3264,280,3168,280C3072,280,2976,280,2880,280C2784,280,2688,280,2592,280C2496,280,2400,280,2304,280C2208,280,2112,280,2016,280C1920,280,1824,280,1728,280C1632,280,1536,280,1440,280C1344,280,1248,280,1152,280C1056,280,960,280,864,280C768,280,672,280,576,280C480,280,384,280,288,280C192,280,96,280,48,280L0,280Z"/></svg>