<?xml version="1.0" standalone="no"?>
<svg xmlns:xlink="http://www.w3.org/1999/xlink" id="wave" style="transform:rotate(0deg); transition: 0.3s" viewBox="0 0 1440 370" version="1.1" xmlns="http://www.w3.org/2000/svg"><defs><linearGradient id="sw-gradient-0" x1="0" x2="0" y1="1" y2="0"><stop stop-color="rgba(0, 91.427, 91.427, 1)" offset="0%"/><stop stop-color="rgba(0, 85, 85, 1)" offset="100%"/></linearGradient></defs><path style="transform:translate(0, 0px); opacity:1" fill="url(#sw-gradient-0)" d="M0,111L40,98.7C80,86,160,62,240,80.2C320,99,400,160,480,185C560,210,640,197,720,160.3C800,123,880,62,960,55.5C1040,49,1120,99,1200,135.7C1280,173,1360,197,1440,191.2C1520,185,1600,148,1680,154.2C1760,160,1840,210,1920,215.8C2000,222,2080,185,2160,141.8C2240,99,2320,49,2400,43.2C2480,37,2560,74,2640,117.2C2720,160,2800,210,2880,215.8C2960,222,3040,185,3120,197.3C3200,210,3280,271,3360,283.7C3440,296,3520,259,3600,259C3680,259,3760,296,3840,308.3C3920,321,4000,308,4080,283.7C4160,259,4240,222,4320,178.8C4400,136,4480,86,4560,61.7C4640,37,4720,37,4800,61.7C4880,86,4960,136,5040,172.7C5120,210,5200,234,5280,228.2C5360,222,5440,185,5520,178.8C5600,173,5680,197,5720,209.7L5760,222L5760,370L5720,370C5680,370,5600,370,5520,370C5440,370,5360,370,5280,370C5200,370,5120,370,5040,370C4960,370,4880,370,4800,370C4720,370,4640,370,4560,370C4480,370,4400,370,4320,370C4240,370,4160,370,4080,370C4000,370,3920,370,3840,370C3760,370,3680,370,3600,370C3520,370,3440,370,3360,370C3280,370,3200,370,3120,370C3040,370,2960,370,2880,370C2800,370,2720,370,2640,370C2560,370,2480,370,2400,370C2320,370,2240,370,2160,370C2080,370,2000,370,1920,370C1840,370,1760,370,1680,370C1600,370,1520,370,1440,370C1360,370,1280,370,1200,370C1120,370,1040,370,960,370C880,370,800,370,720,370C640,370,560,370,480,370C400,370,320,370,240,370C160,370,80,370,40,370L0,370Z"/></svg>