<?xml version="1.0" standalone="no"?>
<svg xmlns:xlink="http://www.w3.org/1999/xlink" id="wave" style="transform:rotate(0deg); transition: 0.3s" viewBox="0 0 1440 490" version="1.1" xmlns="http://www.w3.org/2000/svg"><defs><linearGradient id="sw-gradient-0" x1="0" x2="0" y1="1" y2="0"><stop stop-color="rgba(0, 85, 85, 1)" offset="0%"/><stop stop-color="rgba(6, 154, 142, 1)" offset="100%"/></linearGradient></defs><path style="transform:translate(0, 0px); opacity:1" fill="url(#sw-gradient-0)" d="M0,0L240,16.3C480,33,960,65,1440,122.5C1920,180,2400,261,2880,269.5C3360,278,3840,212,4320,171.5C4800,131,5280,114,5760,147C6240,180,6720,261,7200,285.8C7680,310,8160,278,8640,220.5C9120,163,9600,82,10080,73.5C10560,65,11040,131,11520,155.2C12000,180,12480,163,12960,130.7C13440,98,13920,49,14400,40.8C14880,33,15360,65,15840,122.5C16320,180,16800,261,17280,285.8C17760,310,18240,278,18720,285.8C19200,294,19680,343,20160,318.5C20640,294,21120,196,21600,163.3C22080,131,22560,163,23040,155.2C23520,147,24000,98,24480,122.5C24960,147,25440,245,25920,277.7C26400,310,26880,278,27360,228.7C27840,180,28320,114,28800,138.8C29280,163,29760,278,30240,269.5C30720,261,31200,131,31680,73.5C32160,16,32640,33,33120,40.8C33600,49,34080,49,34320,49L34560,49L34560,490L34320,490C34080,490,33600,490,33120,490C32640,490,32160,490,31680,490C31200,490,30720,490,30240,490C29760,490,29280,490,28800,490C28320,490,27840,490,27360,490C26880,490,26400,490,25920,490C25440,490,24960,490,24480,490C24000,490,23520,490,23040,490C22560,490,22080,490,21600,490C21120,490,20640,490,20160,490C19680,490,19200,490,18720,490C18240,490,17760,490,17280,490C16800,490,16320,490,15840,490C15360,490,14880,490,14400,490C13920,490,13440,490,12960,490C12480,490,12000,490,11520,490C11040,490,10560,490,10080,490C9600,490,9120,490,8640,490C8160,490,7680,490,7200,490C6720,490,6240,490,5760,490C5280,490,4800,490,4320,490C3840,490,3360,490,2880,490C2400,490,1920,490,1440,490C960,490,480,490,240,490L0,490Z"/></svg>